<mxfile host="app.diagrams.net" modified="2020-11-11T04:20:30.723Z" agent="5.0 (Macintosh)" etag="VQ0z8vQ8sTG2RFWPJtry" version="13.9.3" type="github">
  <diagram id="C5RBs43oDa-KdzZeNtuy" name="Page-1">
    <mxGraphModel dx="946" dy="517" grid="1" gridSize="10" guides="1" tooltips="1" connect="1" arrows="1" fold="1" page="1" pageScale="1" pageWidth="827" pageHeight="1169" math="0" shadow="0">
      <root>
        <mxCell id="WIyWlLk6GJQsqaUBKTNV-0" />
        <mxCell id="WIyWlLk6GJQsqaUBKTNV-1" parent="WIyWlLk6GJQsqaUBKTNV-0" />
        <mxCell id="w8MKvCuprVo70jOWoqF--6" value="Pokemon" style="swimlane;fontStyle=1;align=center;verticalAlign=top;childLayout=stackLayout;horizontal=1;startSize=26;horizontalStack=0;resizeParent=1;resizeParentMax=0;resizeLast=0;collapsible=1;marginBottom=0;" parent="WIyWlLk6GJQsqaUBKTNV-1" vertex="1">
          <mxGeometry x="560" y="60" width="226" height="528" as="geometry" />
        </mxCell>
        <mxCell id="w8MKvCuprVo70jOWoqF--7" value="- name: String" style="text;strokeColor=none;fillColor=none;align=left;verticalAlign=top;spacingLeft=4;spacingRight=4;overflow=hidden;rotatable=0;points=[[0,0.5],[1,0.5]];portConstraint=eastwest;" parent="w8MKvCuprVo70jOWoqF--6" vertex="1">
          <mxGeometry y="26" width="226" height="26" as="geometry" />
        </mxCell>
        <mxCell id="w8MKvCuprVo70jOWoqF--11" value="- id: int" style="text;strokeColor=none;fillColor=none;align=left;verticalAlign=top;spacingLeft=4;spacingRight=4;overflow=hidden;rotatable=0;points=[[0,0.5],[1,0.5]];portConstraint=eastwest;" parent="w8MKvCuprVo70jOWoqF--6" vertex="1">
          <mxGeometry y="52" width="226" height="26" as="geometry" />
        </mxCell>
        <mxCell id="w8MKvCuprVo70jOWoqF--12" value="- types: PokemonType" style="text;strokeColor=none;fillColor=none;align=left;verticalAlign=top;spacingLeft=4;spacingRight=4;overflow=hidden;rotatable=0;points=[[0,0.5],[1,0.5]];portConstraint=eastwest;" parent="w8MKvCuprVo70jOWoqF--6" vertex="1">
          <mxGeometry y="78" width="226" height="26" as="geometry" />
        </mxCell>
        <mxCell id="w8MKvCuprVo70jOWoqF--13" value="- species: String" style="text;strokeColor=none;fillColor=none;align=left;verticalAlign=top;spacingLeft=4;spacingRight=4;overflow=hidden;rotatable=0;points=[[0,0.5],[1,0.5]];portConstraint=eastwest;" parent="w8MKvCuprVo70jOWoqF--6" vertex="1">
          <mxGeometry y="104" width="226" height="26" as="geometry" />
        </mxCell>
        <mxCell id="w8MKvCuprVo70jOWoqF--14" value="- height: float" style="text;strokeColor=none;fillColor=none;align=left;verticalAlign=top;spacingLeft=4;spacingRight=4;overflow=hidden;rotatable=0;points=[[0,0.5],[1,0.5]];portConstraint=eastwest;" parent="w8MKvCuprVo70jOWoqF--6" vertex="1">
          <mxGeometry y="130" width="226" height="26" as="geometry" />
        </mxCell>
        <mxCell id="w8MKvCuprVo70jOWoqF--16" value="- weight: float" style="text;strokeColor=none;fillColor=none;align=left;verticalAlign=top;spacingLeft=4;spacingRight=4;overflow=hidden;rotatable=0;points=[[0,0.5],[1,0.5]];portConstraint=eastwest;" parent="w8MKvCuprVo70jOWoqF--6" vertex="1">
          <mxGeometry y="156" width="226" height="26" as="geometry" />
        </mxCell>
        <mxCell id="w8MKvCuprVo70jOWoqF--15" value="- abilities: PokemonAbility" style="text;strokeColor=none;fillColor=none;align=left;verticalAlign=top;spacingLeft=4;spacingRight=4;overflow=hidden;rotatable=0;points=[[0,0.5],[1,0.5]];portConstraint=eastwest;" parent="w8MKvCuprVo70jOWoqF--6" vertex="1">
          <mxGeometry y="182" width="226" height="26" as="geometry" />
        </mxCell>
        <mxCell id="w8MKvCuprVo70jOWoqF--17" value="- evYield: int" style="text;strokeColor=none;fillColor=none;align=left;verticalAlign=top;spacingLeft=4;spacingRight=4;overflow=hidden;rotatable=0;points=[[0,0.5],[1,0.5]];portConstraint=eastwest;" parent="w8MKvCuprVo70jOWoqF--6" vertex="1">
          <mxGeometry y="208" width="226" height="26" as="geometry" />
        </mxCell>
        <mxCell id="w8MKvCuprVo70jOWoqF--19" value="- catchRate: int" style="text;strokeColor=none;fillColor=none;align=left;verticalAlign=top;spacingLeft=4;spacingRight=4;overflow=hidden;rotatable=0;points=[[0,0.5],[1,0.5]];portConstraint=eastwest;" parent="w8MKvCuprVo70jOWoqF--6" vertex="1">
          <mxGeometry y="234" width="226" height="26" as="geometry" />
        </mxCell>
        <mxCell id="w8MKvCuprVo70jOWoqF--21" value="- baseExpierence: int" style="text;strokeColor=none;fillColor=none;align=left;verticalAlign=top;spacingLeft=4;spacingRight=4;overflow=hidden;rotatable=0;points=[[0,0.5],[1,0.5]];portConstraint=eastwest;" parent="w8MKvCuprVo70jOWoqF--6" vertex="1">
          <mxGeometry y="260" width="226" height="26" as="geometry" />
        </mxCell>
        <mxCell id="w8MKvCuprVo70jOWoqF--20" value="- growthRate: String" style="text;strokeColor=none;fillColor=none;align=left;verticalAlign=top;spacingLeft=4;spacingRight=4;overflow=hidden;rotatable=0;points=[[0,0.5],[1,0.5]];portConstraint=eastwest;" parent="w8MKvCuprVo70jOWoqF--6" vertex="1">
          <mxGeometry y="286" width="226" height="26" as="geometry" />
        </mxCell>
        <mxCell id="w8MKvCuprVo70jOWoqF--23" value="- eggGroups: ArrayList&lt;String&gt;" style="text;strokeColor=none;fillColor=none;align=left;verticalAlign=top;spacingLeft=4;spacingRight=4;overflow=hidden;rotatable=0;points=[[0,0.5],[1,0.5]];portConstraint=eastwest;" parent="w8MKvCuprVo70jOWoqF--6" vertex="1">
          <mxGeometry y="312" width="226" height="26" as="geometry" />
        </mxCell>
        <mxCell id="w8MKvCuprVo70jOWoqF--24" value="- baseStats: ArrayList&lt;int&gt;" style="text;strokeColor=none;fillColor=none;align=left;verticalAlign=top;spacingLeft=4;spacingRight=4;overflow=hidden;rotatable=0;points=[[0,0.5],[1,0.5]];portConstraint=eastwest;" parent="w8MKvCuprVo70jOWoqF--6" vertex="1">
          <mxGeometry y="338" width="226" height="26" as="geometry" />
        </mxCell>
        <mxCell id="w8MKvCuprVo70jOWoqF--27" value="- evolutionChain: ArrayList&lt;Pokemon&gt;" style="text;strokeColor=none;fillColor=none;align=left;verticalAlign=top;spacingLeft=4;spacingRight=4;overflow=hidden;rotatable=0;points=[[0,0.5],[1,0.5]];portConstraint=eastwest;" parent="w8MKvCuprVo70jOWoqF--6" vertex="1">
          <mxGeometry y="364" width="226" height="26" as="geometry" />
        </mxCell>
        <mxCell id="w8MKvCuprVo70jOWoqF--26" value="- pokedexEntries: ArrayList&lt;String&gt;" style="text;strokeColor=none;fillColor=none;align=left;verticalAlign=top;spacingLeft=4;spacingRight=4;overflow=hidden;rotatable=0;points=[[0,0.5],[1,0.5]];portConstraint=eastwest;" parent="w8MKvCuprVo70jOWoqF--6" vertex="1">
          <mxGeometry y="390" width="226" height="26" as="geometry" />
        </mxCell>
        <mxCell id="w8MKvCuprVo70jOWoqF--22" value="- moves: ArrayList&lt;PokemonMove&gt;" style="text;strokeColor=none;fillColor=none;align=left;verticalAlign=top;spacingLeft=4;spacingRight=4;overflow=hidden;rotatable=0;points=[[0,0.5],[1,0.5]];portConstraint=eastwest;" parent="w8MKvCuprVo70jOWoqF--6" vertex="1">
          <mxGeometry y="416" width="226" height="26" as="geometry" />
        </mxCell>
        <mxCell id="w8MKvCuprVo70jOWoqF--25" value="- spriteImage: Image??" style="text;strokeColor=none;fillColor=none;align=left;verticalAlign=top;spacingLeft=4;spacingRight=4;overflow=hidden;rotatable=0;points=[[0,0.5],[1,0.5]];portConstraint=eastwest;" parent="w8MKvCuprVo70jOWoqF--6" vertex="1">
          <mxGeometry y="442" width="226" height="26" as="geometry" />
        </mxCell>
        <mxCell id="w8MKvCuprVo70jOWoqF--18" value="- genOrigin: String" style="text;strokeColor=none;fillColor=none;align=left;verticalAlign=top;spacingLeft=4;spacingRight=4;overflow=hidden;rotatable=0;points=[[0,0.5],[1,0.5]];portConstraint=eastwest;" parent="w8MKvCuprVo70jOWoqF--6" vertex="1">
          <mxGeometry y="468" width="226" height="26" as="geometry" />
        </mxCell>
        <mxCell id="w8MKvCuprVo70jOWoqF--8" value="" style="line;strokeWidth=1;fillColor=none;align=left;verticalAlign=middle;spacingTop=-1;spacingLeft=3;spacingRight=3;rotatable=0;labelPosition=right;points=[];portConstraint=eastwest;" parent="w8MKvCuprVo70jOWoqF--6" vertex="1">
          <mxGeometry y="494" width="226" height="8" as="geometry" />
        </mxCell>
        <mxCell id="w8MKvCuprVo70jOWoqF--9" value="+ method(type): type" style="text;strokeColor=none;fillColor=none;align=left;verticalAlign=top;spacingLeft=4;spacingRight=4;overflow=hidden;rotatable=0;points=[[0,0.5],[1,0.5]];portConstraint=eastwest;" parent="w8MKvCuprVo70jOWoqF--6" vertex="1">
          <mxGeometry y="502" width="226" height="26" as="geometry" />
        </mxCell>
        <mxCell id="w8MKvCuprVo70jOWoqF--32" value="PokemonType" style="swimlane;fontStyle=1;align=center;verticalAlign=top;childLayout=stackLayout;horizontal=1;startSize=26;horizontalStack=0;resizeParent=1;resizeParentMax=0;resizeLast=0;collapsible=1;marginBottom=0;" parent="WIyWlLk6GJQsqaUBKTNV-1" vertex="1">
          <mxGeometry y="60" width="520" height="112" as="geometry" />
        </mxCell>
        <mxCell id="w8MKvCuprVo70jOWoqF--33" value="+ types: ArrayList&lt;PokemonType&gt;" style="text;strokeColor=none;fillColor=none;align=left;verticalAlign=top;spacingLeft=4;spacingRight=4;overflow=hidden;rotatable=0;points=[[0,0.5],[1,0.5]];portConstraint=eastwest;fontStyle=4" parent="w8MKvCuprVo70jOWoqF--32" vertex="1">
          <mxGeometry y="26" width="520" height="26" as="geometry" />
        </mxCell>
        <mxCell id="w8MKvCuprVo70jOWoqF--36" value="- name: String" style="text;strokeColor=none;fillColor=none;align=left;verticalAlign=top;spacingLeft=4;spacingRight=4;overflow=hidden;rotatable=0;points=[[0,0.5],[1,0.5]];portConstraint=eastwest;" parent="w8MKvCuprVo70jOWoqF--32" vertex="1">
          <mxGeometry y="52" width="520" height="26" as="geometry" />
        </mxCell>
        <mxCell id="w8MKvCuprVo70jOWoqF--34" value="" style="line;strokeWidth=1;fillColor=none;align=left;verticalAlign=middle;spacingTop=-1;spacingLeft=3;spacingRight=3;rotatable=0;labelPosition=right;points=[];portConstraint=eastwest;" parent="w8MKvCuprVo70jOWoqF--32" vertex="1">
          <mxGeometry y="78" width="520" height="8" as="geometry" />
        </mxCell>
        <mxCell id="w8MKvCuprVo70jOWoqF--35" value="+ getEffectivenessAgainstType(attacker: PokemonType, defender: PokemonType): double" style="text;strokeColor=none;fillColor=none;align=left;verticalAlign=top;spacingLeft=4;spacingRight=4;overflow=hidden;rotatable=0;points=[[0,0.5],[1,0.5]];portConstraint=eastwest;" parent="w8MKvCuprVo70jOWoqF--32" vertex="1">
          <mxGeometry y="86" width="520" height="26" as="geometry" />
        </mxCell>
        <mxCell id="w8MKvCuprVo70jOWoqF--38" value="PokemonAbility" style="swimlane;fontStyle=1;align=center;verticalAlign=top;childLayout=stackLayout;horizontal=1;startSize=26;horizontalStack=0;resizeParent=1;resizeParentMax=0;resizeLast=0;collapsible=1;marginBottom=0;" parent="WIyWlLk6GJQsqaUBKTNV-1" vertex="1">
          <mxGeometry x="280" y="200" width="240" height="112" as="geometry" />
        </mxCell>
        <mxCell id="w8MKvCuprVo70jOWoqF--39" value="- name: String" style="text;strokeColor=none;fillColor=none;align=left;verticalAlign=top;spacingLeft=4;spacingRight=4;overflow=hidden;rotatable=0;points=[[0,0.5],[1,0.5]];portConstraint=eastwest;" parent="w8MKvCuprVo70jOWoqF--38" vertex="1">
          <mxGeometry y="26" width="240" height="26" as="geometry" />
        </mxCell>
        <mxCell id="w8MKvCuprVo70jOWoqF--42" value="- pokemonWithThis: ArrayList&lt;Pokemon&gt;" style="text;strokeColor=none;fillColor=none;align=left;verticalAlign=top;spacingLeft=4;spacingRight=4;overflow=hidden;rotatable=0;points=[[0,0.5],[1,0.5]];portConstraint=eastwest;" parent="w8MKvCuprVo70jOWoqF--38" vertex="1">
          <mxGeometry y="52" width="240" height="26" as="geometry" />
        </mxCell>
        <mxCell id="w8MKvCuprVo70jOWoqF--40" value="" style="line;strokeWidth=1;fillColor=none;align=left;verticalAlign=middle;spacingTop=-1;spacingLeft=3;spacingRight=3;rotatable=0;labelPosition=right;points=[];portConstraint=eastwest;" parent="w8MKvCuprVo70jOWoqF--38" vertex="1">
          <mxGeometry y="78" width="240" height="8" as="geometry" />
        </mxCell>
        <mxCell id="w8MKvCuprVo70jOWoqF--41" value="+ getAllPokemon(): String" style="text;strokeColor=none;fillColor=none;align=left;verticalAlign=top;spacingLeft=4;spacingRight=4;overflow=hidden;rotatable=0;points=[[0,0.5],[1,0.5]];portConstraint=eastwest;" parent="w8MKvCuprVo70jOWoqF--38" vertex="1">
          <mxGeometry y="86" width="240" height="26" as="geometry" />
        </mxCell>
        <mxCell id="w8MKvCuprVo70jOWoqF--43" value="PokemonMove" style="swimlane;fontStyle=1;align=center;verticalAlign=top;childLayout=stackLayout;horizontal=1;startSize=26;horizontalStack=0;resizeParent=1;resizeParentMax=0;resizeLast=0;collapsible=1;marginBottom=0;" parent="WIyWlLk6GJQsqaUBKTNV-1" vertex="1">
          <mxGeometry y="200" width="240" height="294" as="geometry" />
        </mxCell>
        <mxCell id="w8MKvCuprVo70jOWoqF--44" value="- name: String" style="text;strokeColor=none;fillColor=none;align=left;verticalAlign=top;spacingLeft=4;spacingRight=4;overflow=hidden;rotatable=0;points=[[0,0.5],[1,0.5]];portConstraint=eastwest;" parent="w8MKvCuprVo70jOWoqF--43" vertex="1">
          <mxGeometry y="26" width="240" height="26" as="geometry" />
        </mxCell>
        <mxCell id="w8MKvCuprVo70jOWoqF--47" value="- type: PokemonType" style="text;strokeColor=none;fillColor=none;align=left;verticalAlign=top;spacingLeft=4;spacingRight=4;overflow=hidden;rotatable=0;points=[[0,0.5],[1,0.5]];portConstraint=eastwest;" parent="w8MKvCuprVo70jOWoqF--43" vertex="1">
          <mxGeometry y="52" width="240" height="26" as="geometry" />
        </mxCell>
        <mxCell id="w8MKvCuprVo70jOWoqF--51" value="- category: String" style="text;strokeColor=none;fillColor=none;align=left;verticalAlign=top;spacingLeft=4;spacingRight=4;overflow=hidden;rotatable=0;points=[[0,0.5],[1,0.5]];portConstraint=eastwest;" parent="w8MKvCuprVo70jOWoqF--43" vertex="1">
          <mxGeometry y="78" width="240" height="26" as="geometry" />
        </mxCell>
        <mxCell id="w8MKvCuprVo70jOWoqF--50" value="- power: int" style="text;strokeColor=none;fillColor=none;align=left;verticalAlign=top;spacingLeft=4;spacingRight=4;overflow=hidden;rotatable=0;points=[[0,0.5],[1,0.5]];portConstraint=eastwest;" parent="w8MKvCuprVo70jOWoqF--43" vertex="1">
          <mxGeometry y="104" width="240" height="26" as="geometry" />
        </mxCell>
        <mxCell id="w8MKvCuprVo70jOWoqF--49" value="- accuracy: int" style="text;strokeColor=none;fillColor=none;align=left;verticalAlign=top;spacingLeft=4;spacingRight=4;overflow=hidden;rotatable=0;points=[[0,0.5],[1,0.5]];portConstraint=eastwest;" parent="w8MKvCuprVo70jOWoqF--43" vertex="1">
          <mxGeometry y="130" width="240" height="26" as="geometry" />
        </mxCell>
        <mxCell id="w8MKvCuprVo70jOWoqF--48" value="- powerPoint: int" style="text;strokeColor=none;fillColor=none;align=left;verticalAlign=top;spacingLeft=4;spacingRight=4;overflow=hidden;rotatable=0;points=[[0,0.5],[1,0.5]];portConstraint=eastwest;" parent="w8MKvCuprVo70jOWoqF--43" vertex="1">
          <mxGeometry y="156" width="240" height="26" as="geometry" />
        </mxCell>
        <mxCell id="w8MKvCuprVo70jOWoqF--54" value="- genOrigin: String" style="text;strokeColor=none;fillColor=none;align=left;verticalAlign=top;spacingLeft=4;spacingRight=4;overflow=hidden;rotatable=0;points=[[0,0.5],[1,0.5]];portConstraint=eastwest;" parent="w8MKvCuprVo70jOWoqF--43" vertex="1">
          <mxGeometry y="182" width="240" height="26" as="geometry" />
        </mxCell>
        <mxCell id="w8MKvCuprVo70jOWoqF--53" value="- description: String" style="text;strokeColor=none;fillColor=none;align=left;verticalAlign=top;spacingLeft=4;spacingRight=4;overflow=hidden;rotatable=0;points=[[0,0.5],[1,0.5]];portConstraint=eastwest;" parent="w8MKvCuprVo70jOWoqF--43" vertex="1">
          <mxGeometry y="208" width="240" height="26" as="geometry" />
        </mxCell>
        <mxCell id="w8MKvCuprVo70jOWoqF--52" value="- pokemonWithThis: ArrayList&lt;Pokemon&gt;" style="text;strokeColor=none;fillColor=none;align=left;verticalAlign=top;spacingLeft=4;spacingRight=4;overflow=hidden;rotatable=0;points=[[0,0.5],[1,0.5]];portConstraint=eastwest;" parent="w8MKvCuprVo70jOWoqF--43" vertex="1">
          <mxGeometry y="234" width="240" height="26" as="geometry" />
        </mxCell>
        <mxCell id="w8MKvCuprVo70jOWoqF--45" value="" style="line;strokeWidth=1;fillColor=none;align=left;verticalAlign=middle;spacingTop=-1;spacingLeft=3;spacingRight=3;rotatable=0;labelPosition=right;points=[];portConstraint=eastwest;" parent="w8MKvCuprVo70jOWoqF--43" vertex="1">
          <mxGeometry y="260" width="240" height="8" as="geometry" />
        </mxCell>
        <mxCell id="w8MKvCuprVo70jOWoqF--46" value="+ method(type): type" style="text;strokeColor=none;fillColor=none;align=left;verticalAlign=top;spacingLeft=4;spacingRight=4;overflow=hidden;rotatable=0;points=[[0,0.5],[1,0.5]];portConstraint=eastwest;" parent="w8MKvCuprVo70jOWoqF--43" vertex="1">
          <mxGeometry y="268" width="240" height="26" as="geometry" />
        </mxCell>
        <mxCell id="GqNZySGGQGl0fBRmke-w-0" value="DataCollector" style="swimlane;fontStyle=1;align=center;verticalAlign=top;childLayout=stackLayout;horizontal=1;startSize=26;horizontalStack=0;resizeParent=1;resizeParentMax=0;resizeLast=0;collapsible=1;marginBottom=0;" vertex="1" parent="WIyWlLk6GJQsqaUBKTNV-1">
          <mxGeometry y="520" width="300" height="78" as="geometry" />
        </mxCell>
        <mxCell id="GqNZySGGQGl0fBRmke-w-3" value="+ getJSONFromFile(filePath: String): JSONObject" style="text;strokeColor=none;fillColor=none;align=left;verticalAlign=top;spacingLeft=4;spacingRight=4;overflow=hidden;rotatable=0;points=[[0,0.5],[1,0.5]];portConstraint=eastwest;fontStyle=4" vertex="1" parent="GqNZySGGQGl0fBRmke-w-0">
          <mxGeometry y="26" width="300" height="26" as="geometry" />
        </mxCell>
        <mxCell id="GqNZySGGQGl0fBRmke-w-12" value="+ getValueFromJSON(value: String): String/int/double&#xa;" style="text;strokeColor=none;fillColor=none;align=left;verticalAlign=top;spacingLeft=4;spacingRight=4;overflow=hidden;rotatable=0;points=[[0,0.5],[1,0.5]];portConstraint=eastwest;" vertex="1" parent="GqNZySGGQGl0fBRmke-w-0">
          <mxGeometry y="52" width="300" height="26" as="geometry" />
        </mxCell>
      </root>
    </mxGraphModel>
  </diagram>
</mxfile>
